<?xml version="1.0" encoding="utf-8"?>
<?xml-stylesheet type="text/xsl" href="rss1.xsl"?>
<rss version="2.0" xmlns:atom="http://www.w3.org/2005/Atom" xmlns:content="http://purl.org/rss/1.0/modules/content/" xmlns:dc="http://purl.org/dc/elements/1.1/" xmlns:media="http://search.yahoo.com/mrss/">
<channel>
 <title>Getty</title>
 <link>http://www.gettyimg.com/</link>
 <atom:link href="http://www.gettyimg.com/" rel="self" type="application/rss+xml" />

 
                <item>
                <title><![CDATA[【Music Videos】Depeche Mode - Enjoy The Silence (Violator Version) VJ-RoGeRs Video Edit (1080p 5.1) (Clean)]]></title>
                <link><![CDATA[https://sharemania.us/threads/depeche-mode-enjoy-the-silence-violator-version-vj-rogers-video-edit-1080p-5-1-clean.249389/]]></link>
                <description><![CDATA[<article>
<blockquote class="messageText SelectQuoteContainer ugc baseHtml">
<img src="https://i.ibb.co/vXppDfG/Depeche-Mode-Enjoy-The-Silence-Violator-Version-VJ-Ro-Ge-Rs-Video-Edit-1080p-5-1-mp4-thumbs-2024-07.jpg" class="bbCodeImage LbImage" alt="[​IMG]" data-url="https://i.ibb.co/vXppDfG/Depeche-Mode-Enjoy-The-Silence-Violator-Version-VJ-Ro-Ge-Rs-Video-Edit-1080p-5-1-mp4-thumbs-2024-07.jpg" style=""> <br>
<br>
<div class="ToggleTriggerAnchor bbCodeSpoilerContainer">
<button type="button" class="button bbCodeSpoilerButton ToggleTrigger Tooltip JsOnly" data-target="> .SpoilerTarget"><span>Spoiler: <span class="SpoilerTitle">MediaInfo</span></span></button>
<div class="SpoilerTarget bbCodeSpoilerText">Depeche Mode - Enjoy The Silence (Violator Version) VJ-RoGeRs Video Edit (1080p 5.1).mp4<br>
Format : MPEG-4<br>
Format profile : Base Media / Version 2<br>
Codec ID : mp42 (mp42/mp41)<br>
File size : 407 MiB<br>
Duration : 4 min 36 s<br>
Overall bit rate mode : Variable<br>
Overall bit rate : 12.3 Mb/s<br>
Frame rate : 30.000 FPS<br>
Encoded date : 2024-07-09 22:24:58 UTC<br>
Tagged date : 2024-07-09 23:19:55 UTC<br>
TIM : 00:00:00:00<br>
TSC : 30<br>
TSZ : 1<br>
<br>
Video<br>
ID : 1<br>
Format : AVC<br>
Format/Info : Advanced Video Codec<br>
Format profile : Main@L4.1<br>
Format settings : CABAC / 4 Ref Frames<br>
Format settings, CABAC : Yes<br>
Format settings, Reference : 4 frames<br>
Format settings, GOP : M=4, N=30<br>
Codec ID : avc1<br>
Codec ID/Info : Advanced Video Coding<br>
Duration : 4 min 36 s<br>
Bit rate : 12.0 Mb/s<br>
Width : 1 920 pixels<br>
Height : 1 080 pixels<br>
Display aspect ratio : 16:9<br>
Frame rate mode : Constant<br>
Frame rate : 30.000 FPS<br>
Color space : YUV<br>
Chroma subsampling : 4:2:0<br>
Bit depth : 8 bits<br>
Scan type : Progressive<br>
Bits/(Pixel*Frame) : 0.193<br>
Stream size : 396 MiB (97%)<br>
Language : English<br>
Encoded date : 2024-07-09 22:25:13 UTC<br>
Tagged date : 2024-07-09 22:25:13 UTC<br>
Color range : Limited<br>
Color primaries : BT.709<br>
Transfer characteristics : BT.709<br>
Matrix coefficients : BT.709<br>
Codec configuration box : avcC<br>
<br>
Audio<br>
ID : 2<br>
Format : AAC LC<br>
Format/Info : Advanced Audio Codec Low Complexity<br>
Codec ID : mp4a-40-2<br>
Duration : 4 min 36 s<br>
Source duration : 4 min 36 s<br>
Bit rate mode : Variable<br>
Bit rate : 317 kb/s<br>
Maximum bit rate : 1 254 kb/s<br>
Channel(s) : 6 channels<br>
Channel layout : C L R Ls Rs LFE<br>
Sampling rate : 48.0 kHz<br>
Frame rate : 46.875 FPS (1024 SPF)<br>
Compression mode : Lossy<br>
Stream size : 10.5 MiB (3%)<br>
Source stream size : 10.5 MiB (3%)<br>
Language : English<br>
Encoded date : 2024-07-09 22:25:06 UTC<br>
Tagged date : 2024-07-09 22:25:06 UTC</div>
</div><br>
<div class="bbCodeBlock bbCodeVfcHH HiddenContent">
<div class="attribution type">Hidden Content:</div>
<blockquote>You must reply before you can see the hidden data contained here.</blockquote>
</div>
<div class="messageTextEndMarker">&nbsp;</div>
</blockquote>
</article>]]></description>
                <author><![CDATA[DJ-RoGeRs-BS]]></author>
                </item>

                
                <item>
                <title><![CDATA[【Requests】[REQ AUD] - (Single)(ALAC) YENTOWN - Fuko Chu No Saiwai]]></title>
                <link><![CDATA[https://sharemania.us/threads/single-alac-yentown-fuko-chu-no-saiwai.249390/]]></link>
                <description><![CDATA[<article>
<blockquote class="messageText SelectQuoteContainer ugc baseHtml">
thanks
<div class="messageTextEndMarker">&nbsp;</div>
</blockquote>
</article>]]></description>
                <author><![CDATA[Waka020]]></author>
                </item>

                
                <item>
                <title><![CDATA[【Albums (lossless)】PACK - Jessie J @ Discography + Apple Videos [Apple Lossless 16-24 bits/44,1-48 kHz]]]></title>
                <link><![CDATA[https://sharemania.us/threads/jessie-j-discography-apple-videos-apple-lossless-16-24-bits-44-1-48-khz.249391/]]></link>
                <description><![CDATA[<article>
<blockquote class="messageText SelectQuoteContainer ugc baseHtml">
ALAC<br>
<a href="https://music.apple.com/nz/album/fuko-chu-no-saiwai-feat-kzm-petz-jnkmn-awich-monyhorse/1746008269" target="_blank" class="externalLink" rel="nofollow">https://music.apple.com/nz/album/fuko-chu-no-saiwai-feat-kzm-petz-jnkmn-awich-monyhorse/1746008269</a><br>
<br>
Please.
<div class="messageTextEndMarker">&nbsp;</div>
</blockquote>
</article>]]></description>
                <author><![CDATA[itunesboy]]></author>
                </item>

                </channel></rss>